# xmcd
#
# Track frame offsets: 
#        150
#        19162
#        40881
#        64304
#        84983
#        104393
#        125785
#        148010
#        169495
#        185345
#        206151
#        225489
#
# Disc length: 3240 seconds
#
# Revision: 0
# Processed by: cddbd v1.5.1PL0 Copyright (c) Steve Scherf et al.
# Submitted via: ExactAudioCopy v0.95a5
#
DISCID=ad0ca60c
DTITLE=Junior Y Jorge - Tu Vas A Volar
DYEAR=2000
DGENRE=Latin
TTITLE0=Tu Vas A Volar
TTITLE1=Olvidala
TTITLE2=Si Te Pudiera Mentir
TTITLE3=El Buen Perdedor
TTITLE4=La Fotografia
TTITLE5=Temporal De Amor
TTITLE6=Me Duele
TTITLE7=Como Te Olvido
TTITLE8=Hasta Ayer
TTITLE9=Amigo Mio
TTITLE10=El Perdedor
TTITLE11=Si Algun Dia La Vez
EXTD=
EXTT0=
EXTT1=
EXTT2=
EXTT3=
EXTT4=
EXTT5=
EXTT6=
EXTT7=
EXTT8=
EXTT9=
EXTT10=
EXTT11=
PLAYORDER=
